<svg xmlns="http://www.w3.org/2000/svg" version="1.1" xmlns:xlink="http://www.w3.org/1999/xlink" xmlns:svgjs="http://svgjs.dev/svgjs" width="1920" height="1080" preserveAspectRatio="none" viewBox="0 0 1920 1080"><g mask="url(&quot;#SvgjsMask1097&quot;)" fill="none"><rect width="1920" height="1080" x="0" y="0" fill="rgba(193, 38, 251, 1)"></rect><path d="M1920 0L1564.38 0L1920 112.69z" fill="rgba(255, 255, 255, .1)"></path><path d="M1564.38 0L1920 112.69L1920 126.64L1263.68 0z" fill="rgba(255, 255, 255, .075)"></path><path d="M1263.68 0L1920 126.64L1920 602.57L560.5500000000001 0z" fill="rgba(255, 255, 255, .05)"></path><path d="M560.5500000000002 0L1920 602.57L1920 901.4000000000001L332.0300000000002 0z" fill="rgba(255, 255, 255, .025)"></path><path d="M0 1080L604.59 1080L0 677.75z" fill="rgba(0, 0, 0, .1)"></path><path d="M0 677.75L604.59 1080L735.5 1080L0 356.75z" fill="rgba(0, 0, 0, .075)"></path><path d="M0 356.75L735.5 1080L1393.15 1080L0 334.06z" fill="rgba(0, 0, 0, .05)"></path><path d="M0 334.05999999999995L1393.15 1080L1704.45 1080L0 297.69999999999993z" fill="rgba(0, 0, 0, .025)"></path></g><defs><mask id="SvgjsMask1097"><rect width="1920" height="1080" fill="#ffffff"></rect></mask></defs></svg>